Coordinates
version=1
nRows=65
nColumns=12
inDegrees=yes

Units are S.I. units (second, meters, Newtons, ...)
Angles are in degrees

endheader
time	SC_y	SC_z	SC_x	AC_y	AC_z	AC_x	GH_y	GH_z	GH_yy	EL_x	PS_y
       0.0              -31.75         -1.493          30.32          39.25         -14.29         -18.84         0.5594          64.68          14.96          95.55          125.6
   0.04757              -31.74         -1.489          30.31          39.25         -14.29         -18.84         0.5764          64.67          14.95          95.54          125.6
   0.09514              -31.74         -1.484          30.31          39.25         -14.29         -18.84         0.5945          64.66          14.95          95.53          125.6
    0.1427              -31.74         -1.479          30.31          39.25         -14.28         -18.84         0.6137          64.64          14.94          95.53          125.6
    0.1903              -31.74         -1.474          30.31          39.25         -14.28         -18.83         0.6342          64.63          14.94          95.52          125.6
    0.2378              -31.74         -1.468          30.31          39.25         -14.28         -18.83          0.656          64.61          14.93          95.52          125.7
    0.2854              -31.73         -1.462          30.31          39.25         -14.27         -18.83         0.6793           64.6          14.93          95.51          125.7
     0.333              -31.73         -1.455          30.31          39.25         -14.27         -18.82         0.7042          64.58          14.92           95.5          125.7
    0.3806              -31.73         -1.449          30.31          39.25         -14.26         -18.82         0.7309          64.56          14.91          95.49          125.7
    0.4281              -31.72         -1.441           30.3          39.25         -14.26         -18.82         0.7595          64.54          14.91          95.48          125.7
    0.4757              -31.72         -1.433           30.3          39.26         -14.25         -18.81         0.7902          64.52           14.9          95.47          125.7
    0.5233              -31.71         -1.424           30.3          39.26         -14.24         -18.81         0.8233          64.49          14.89          95.46          125.7
    0.5708              -31.71         -1.415           30.3          39.26         -14.24         -18.81         0.8589          64.47          14.88          95.45          125.7
    0.6184               -31.7         -1.405           30.3          39.26         -14.23          -18.8         0.8974          64.44          14.87          95.44          125.7
     0.666               -31.7         -1.394          30.29          39.26         -14.22          -18.8         0.9391          64.41          14.86          95.43          125.7
    0.7135              -31.69         -1.383          30.29          39.26         -14.21         -18.79         0.9843          64.38          14.85          95.41          125.7
    0.7611              -31.69          -1.37          30.29          39.26          -14.2         -18.79          1.033          64.34          14.83           95.4          125.7
    0.8087              -31.68         -1.356          30.29          39.26         -14.19         -18.78          1.087           64.3          14.82          95.38          125.7
    0.8562              -31.67         -1.341          30.28          39.26         -14.18         -18.77          1.145          64.26           14.8          95.36          125.8
    0.9038              -31.67         -1.324          30.28          39.27         -14.17         -18.77          1.209          64.22          14.78          95.34          125.8
    0.9514              -31.66         -1.306          30.27          39.27         -14.16         -18.76           1.28          64.17          14.77          95.32          125.8
     0.999              -31.65         -1.286          30.27          39.27         -14.14         -18.75          1.357          64.11          14.75           95.3          125.8
     1.047              -31.64         -1.263          30.27          39.27         -14.13         -18.74          1.442          64.05          14.72          95.27          125.8
     1.094              -31.62         -1.239          30.26          39.27         -14.11         -18.73          1.537          63.98           14.7          95.24          125.8
     1.142              -31.61         -1.212          30.25          39.28         -14.09         -18.72          1.642          63.91          14.67          95.21          125.9
     1.189               -31.6         -1.181          30.25          39.28         -14.06          -18.7           1.76          63.82          14.64          95.17          125.9
     1.237              -31.58         -1.147          30.24          39.28         -14.04         -18.69          1.891          63.73           14.6          95.13          125.9
     1.284              -31.56         -1.108          30.23          39.28         -14.01         -18.67          2.039          63.62          14.56          95.08          125.9
     1.332              -31.54         -1.065          30.22          39.29         -13.98         -18.65          2.206           63.5          14.52          95.03          126.0
      1.38              -31.52         -1.015          30.21          39.29         -13.94         -18.63          2.396          63.37          14.47          94.97          126.0
     1.427              -31.49        -0.9591           30.2           39.3          -13.9         -18.61          2.612          63.21          14.41           94.9          126.1
     1.475              -31.46        -0.8945          30.19           39.3         -13.85         -18.58          2.861          63.03          14.34          94.82          126.1
     1.522              -31.42        -0.8199          30.17          39.31          -13.8         -18.55          3.148          62.83          14.26          94.73          126.2
      1.57              -31.38        -0.7331          30.15          39.32         -13.74         -18.51          3.481          62.59          14.17          94.63          126.3
     1.617              -31.33        -0.6317          30.13          39.33         -13.66         -18.46          3.872          62.31          14.07          94.51          126.3
     1.665              -31.27         -0.512           30.1          39.34         -13.57         -18.41          4.332          61.98          13.95          94.36          126.4
     1.712              -31.21        -0.3699          30.07          39.35         -13.47         -18.35          4.878          61.59           13.8          94.19          126.5
      1.76              -31.12        -0.1995          30.04          39.37         -13.35         -18.27          5.533          61.12          13.62          93.99          126.7
     1.808              -31.02       0.006702          29.99          39.39         -13.19         -18.18          6.326          60.55          13.41          93.74          126.9
     1.855               -30.9         0.2586          29.94          39.41         -13.01         -18.07          7.294          59.86          13.15          93.44          127.1
     1.903              -30.75         0.5694          29.87          39.44         -12.78         -17.94          8.489           59.0          12.83          93.06          127.3
      1.95              -30.57          0.957          29.79          39.47          -12.5         -17.77           9.98          57.93          12.43          92.59          127.6
     1.998              -30.33          1.445          29.68          39.52         -12.14         -17.55          11.86          56.59          11.93          92.01          128.0
     2.045              -30.03          2.066          29.55          39.57         -11.68         -17.28          14.24          54.88          11.28          91.26          128.5
     2.093              -29.65           2.86          29.38          39.65          -11.1         -16.93           17.3          52.69          10.46           90.3          129.2
     2.141              -29.16           3.88          29.16          39.74         -10.35         -16.48          21.22          49.89          9.411          89.07          130.0
     2.188              -28.53          5.182          28.87          39.86           -9.4         -15.91          26.23           46.3          8.067           87.5          131.1
     2.236              -27.74           6.82          28.52          40.01           -8.2          -15.2          32.52          41.79          6.376          85.53          132.4
     2.283              -26.78          8.815          28.09          40.19         -6.737         -14.32          40.19           36.3          4.315          83.12          134.0
     2.331              -25.67          11.13          27.59           40.4         -5.041         -13.31          49.09          29.93          1.927          80.34          135.9
     2.378              -24.46          13.63          27.05          40.63         -3.205         -12.21          58.72          23.03        -0.6589          77.32          138.0
     2.426              -23.25          16.14          26.51          40.86         -1.369         -11.11          68.35          16.13         -3.245           74.3          140.0
     2.474              -22.14          18.45          26.01          41.07         0.3263         -10.09          77.24          9.763         -5.633          71.51          141.9
     2.521              -21.18          20.45          25.58          41.25          1.789          -9.22          84.91          4.268         -7.694          69.11          143.5
     2.569              -20.39          22.08          25.23           41.4           2.99         -8.502          91.21        -0.2412         -9.385          67.14          144.9
     2.616              -19.76          23.39          24.95          41.52          3.944          -7.93          96.21         -3.827         -10.73          65.57          145.9
     2.664              -19.27          24.41          24.73          41.61          4.692         -7.483          100.1         -6.635         -11.78          64.34          146.8
     2.711              -18.89           25.2          24.56          41.69          5.274         -7.135          103.2         -8.823          -12.6          63.38          147.4
     2.759              -18.59          25.82          24.42          41.74          5.729         -6.863          105.6         -10.53         -13.24          62.63          147.9
     2.807              -18.35          26.31          24.32          41.79          6.087         -6.648          107.5         -11.88         -13.75          62.05          148.3
     2.854              -18.16           26.7          24.23          41.82          6.371         -6.478          108.9         -12.94         -14.15          61.58          148.6
     2.902              -18.01          27.01          24.17          41.85          6.599         -6.342          110.1          -13.8         -14.47           61.2          148.9
     2.949              -17.89          27.26          24.11          41.88          6.784         -6.232          111.1         -14.49         -14.73           60.9          149.1
     2.997              -17.79          27.47          24.07          41.89          6.935         -6.141          111.9         -15.06         -14.94          60.65          149.3
     3.044              -17.71          27.64          24.03          41.91           7.06         -6.067          112.6         -15.53         -15.12          60.45          149.4
